<svg width="228" height="81" viewBox="0 0 228 81" fill="none" xmlns="http://www.w3.org/2000/svg">
<path d="M55.1201 14.7694L69.8894 40.3506L55.1201 65.9319L25.5814 65.9319L10.812 40.3506L25.5814 14.7694L55.1201 14.7694Z" fill="url(#paint0_linear_56_177)"/>
<path d="M62.137 17.7935L57.9563 42.2675L73.8139 61.3722L49.34 57.1915L30.2352 73.0491L34.4159 48.5751L18.5584 29.4704L43.0323 33.6511L62.137 17.7935Z" fill="white"/>
<path d="M90.8864 49.3809C89.1964 49.3809 87.9028 48.9531 87.0056 48.0977C86.1084 47.2422 85.6599 46.0217 85.6599 44.436C85.6599 42.8711 86.1084 41.661 87.0056 40.8055C87.9028 39.9501 89.1964 39.5224 90.8864 39.5224H102.904V38.7712C102.904 37.4985 102.278 36.8621 101.027 36.8621H87.7567V33.263H102.216C104.115 33.263 105.46 33.7012 106.253 34.5775C107.046 35.4329 107.442 36.6431 107.442 38.2079V49.3809H90.8864ZM91.7001 45.7817H102.904V43.1215H91.7001C91.3037 43.1215 90.9907 43.2467 90.7612 43.4971C90.5526 43.7266 90.4483 44.0395 90.4483 44.436C90.4483 44.8324 90.5526 45.1558 90.7612 45.4062C90.9907 45.6565 91.3037 45.7817 91.7001 45.7817ZM114.558 49.3809C112.868 49.3809 111.575 48.9531 110.677 48.0977C109.78 47.2422 109.332 46.0217 109.332 44.436C109.332 42.8711 109.78 41.661 110.677 40.8055C111.575 39.9501 112.868 39.5224 114.558 39.5224H126.576V38.7712C126.576 37.4985 125.95 36.8621 124.698 36.8621H111.429V33.263H125.888C127.786 33.263 129.132 33.7012 129.925 34.5775C130.718 35.4329 131.114 36.6431 131.114 38.2079V49.3809H114.558ZM115.372 45.7817H126.576V43.1215H115.372C114.976 43.1215 114.663 43.2467 114.433 43.4971C114.224 43.7266 114.12 44.0395 114.12 44.436C114.12 44.8324 114.224 45.1558 114.433 45.4062C114.663 45.6565 114.976 45.7817 115.372 45.7817ZM133.942 49.3809V27.0037H138.481V49.3809H133.942ZM146.426 49.3809C144.59 49.3809 143.244 48.9218 142.389 48.0038C141.554 47.0858 141.137 45.8965 141.137 44.436V33.263H145.675V43.9039C145.675 45.1558 146.301 45.7817 147.553 45.7817H154.063C155.315 45.7817 155.94 45.1558 155.94 43.9039V33.263H160.479V44.436C160.479 45.8965 160.051 47.0858 159.195 48.0038C158.361 48.9218 157.025 49.3809 155.189 49.3809H146.426ZM182.974 49.3809V27.0037H178.436V49.3809H182.974ZM182.191 49.3809V45.7817H171.394C170.038 45.7817 168.995 45.4166 168.264 44.6863C167.555 43.9352 167.2 42.819 167.2 41.3376C167.2 39.8353 167.555 38.7191 168.264 37.9888C168.995 37.2377 170.038 36.8621 171.394 36.8621H181.878V33.263H171.394C168.598 33.263 166.418 33.9515 164.853 35.3286C163.288 36.7057 162.506 38.7087 162.506 41.3376C162.506 43.9457 163.288 45.9382 164.853 47.3153C166.418 48.6923 168.598 49.3809 171.394 49.3809H182.191ZM185.795 49.3809V33.263H198.126C199.941 33.263 201.276 33.722 202.132 34.6401C202.987 35.5372 203.415 36.7265 203.415 38.2079V41.5567H198.814V38.7712C198.814 37.5194 198.188 36.8934 196.937 36.8934H190.396V49.3809H185.795ZM209.567 49.3809C207.877 49.3809 206.584 48.9531 205.686 48.0977C204.789 47.2422 204.341 46.0217 204.341 44.436C204.341 42.8711 204.789 41.661 205.686 40.8055C206.584 39.9501 207.877 39.5224 209.567 39.5224H221.585V38.7712C221.585 37.4985 220.959 36.8621 219.707 36.8621H206.438V33.263H220.897C222.795 33.263 224.141 33.7012 224.934 34.5775C225.727 35.4329 226.123 36.6431 226.123 38.2079V49.3809H209.567ZM210.381 45.7817H221.585V43.1215H210.381C209.985 43.1215 209.672 43.2467 209.442 43.4971C209.233 43.7266 209.129 44.0395 209.129 44.436C209.129 44.8324 209.233 45.1558 209.442 45.4062C209.672 45.6565 209.985 45.7817 210.381 45.7817Z" fill="black"/>
<defs>
<linearGradient id="paint0_linear_56_177" x1="55.1201" y1="14.7694" x2="25.5814" y2="65.9319" gradientUnits="userSpaceOnUse">
<stop stop-color="#00D8F3"/>
<stop offset="1" stop-color="#2495FE"/>
</linearGradient>
</defs>
</svg>
