<svg width="91" height="32" viewBox="0 0 91 32" fill="none" xmlns="http://www.w3.org/2000/svg">
<path d="M21.9906 6.12855L27.8829 16.3344L21.9906 26.5402L10.2059 26.5402L4.31353 16.3344L10.2059 6.12855L21.9906 6.12855Z" fill="url(#paint0_linear_158_4)"/>
<path d="M24.7901 7.33517L23.1222 17.0992L29.4487 24.7212L19.6846 23.0533L12.0626 29.3798L13.7306 19.6157L7.40406 11.9937L17.1681 13.6617L24.7901 7.33517Z" fill="white"/>
<path d="M36.2598 20.3673C35.5856 20.3673 35.0695 20.1967 34.7116 19.8554C34.3536 19.5141 34.1747 19.0271 34.1747 18.3945C34.1747 17.7702 34.3536 17.2874 34.7116 16.9461C35.0695 16.6048 35.5856 16.4342 36.2598 16.4342H41.0545V16.1345C41.0545 15.6268 40.8048 15.3729 40.3053 15.3729H35.0112V13.937H40.7798C41.5373 13.937 42.0742 14.1118 42.3905 14.4614C42.7068 14.8027 42.865 15.2855 42.865 15.9098V20.3673H36.2598ZM36.5845 18.9314H41.0545V17.8701H36.5845C36.4263 17.8701 36.3015 17.92 36.2099 18.0199C36.1267 18.1115 36.085 18.2364 36.085 18.3945C36.085 18.5527 36.1267 18.6817 36.2099 18.7816C36.3015 18.8815 36.4263 18.9314 36.5845 18.9314ZM47.3396 20.3673C46.6154 20.3673 46.0827 20.1883 45.7414 19.8304C45.4001 19.4641 45.2294 18.9855 45.2294 18.3945V15.3729H43.369V13.937H45.2294V11.9642H47.0399V13.937H49.712V15.3729H47.0399V18.1698C47.0399 18.6775 47.2897 18.9314 47.7891 18.9314H50.0616V20.3673H47.3396ZM50.9299 20.3673V11.4398H52.9277V18.7441H59.4579V20.3673H50.9299ZM61.9827 20.3673C61.3084 20.3673 60.7923 20.1967 60.4344 19.8554C60.0764 19.5141 59.8975 19.0271 59.8975 18.3945C59.8975 17.7702 60.0764 17.2874 60.4344 16.9461C60.7923 16.6048 61.3084 16.4342 61.9827 16.4342H66.7773V16.1345C66.7773 15.6268 66.5276 15.3729 66.0282 15.3729H60.734V13.937H66.5026C67.2601 13.937 67.797 14.1118 68.1133 14.4614C68.4296 14.8027 68.5878 15.2855 68.5878 15.9098V20.3673H61.9827ZM62.3073 18.9314H66.7773V17.8701H62.3073C62.1491 17.8701 62.0243 17.92 61.9327 18.0199C61.8495 18.1115 61.8079 18.2364 61.8079 18.3945C61.8079 18.5527 61.8495 18.6817 61.9327 18.7816C62.0243 18.8815 62.1491 18.9314 62.3073 18.9314ZM69.7161 20.3673V11.4398H71.5266V20.3673H69.7161ZM70.0283 20.3673V18.9314H74.336C74.8771 18.9314 75.2891 18.7857 75.5721 18.4944C75.8635 18.1947 76.0091 17.7494 76.0091 17.1584C76.0091 16.5591 75.8635 16.1137 75.5721 15.8224C75.2891 15.5227 74.8771 15.3729 74.336 15.3729H70.1531V13.937H74.336C75.4514 13.937 76.3213 14.2117 76.9456 14.7611C77.5699 15.3104 77.882 16.1096 77.882 17.1584C77.882 18.1989 77.5699 18.9938 76.9456 19.5432C76.3213 20.0926 75.4514 20.3673 74.336 20.3673H70.0283ZM78.5456 20.4297V18.9938H84.6637C85.0133 18.9938 85.1882 18.7982 85.1882 18.407C85.1882 18.0241 85.0133 17.8326 84.6637 17.8326H80.7056C79.9648 17.8326 79.4029 17.6662 79.02 17.3332C78.6371 16.9919 78.4457 16.5049 78.4457 15.8723C78.4457 15.2314 78.6371 14.7402 79.02 14.399C79.4113 14.0493 79.9731 13.8745 80.7056 13.8745H86.3993V15.3104H80.7931C80.4351 15.3104 80.2561 15.4852 80.2561 15.8349C80.2561 16.0097 80.3061 16.147 80.406 16.2469C80.5059 16.3468 80.6349 16.3967 80.7931 16.3967H84.9884C85.6377 16.3967 86.1329 16.5674 86.4742 16.9087C86.8238 17.2416 86.9986 17.7286 86.9986 18.3695C86.9986 19.0188 86.8238 19.5266 86.4742 19.8928C86.1246 20.2508 85.6293 20.4297 84.9884 20.4297H78.5456Z" fill="#000B14"/>
<defs>
<linearGradient id="paint0_linear_158_4" x1="21.9906" y1="6.12855" x2="10.2059" y2="26.5402" gradientUnits="userSpaceOnUse">
<stop stop-color="#00D8F3"/>
<stop offset="1" stop-color="#2495FE"/>
</linearGradient>
</defs>
</svg>
