<svg width="133" height="50" viewBox="0 0 133 50" fill="none" xmlns="http://www.w3.org/2000/svg">
<path d="M30.6901 8.22338L38.9135 22.4667L30.6901 36.71L14.2433 36.71L6.01995 22.4667L14.2433 8.22338L30.6901 8.22338Z" fill="url(#paint0_linear_1_38)"/>
<path d="M34.597 9.90726L32.2693 23.534L41.0985 34.1713L27.4718 31.8435L16.8345 40.6728L19.1623 27.046L10.333 16.4088L23.9598 18.7365L34.597 9.90726Z" fill="white"/>
<path d="M50.6044 27.3478C49.6634 27.3478 48.9431 27.1096 48.4436 26.6333C47.9441 26.157 47.6943 25.4774 47.6943 24.5945C47.6943 23.7232 47.9441 23.0495 48.4436 22.5732C48.9431 22.0969 49.6634 21.8587 50.6044 21.8587H57.2958V21.4405C57.2958 20.7318 56.9473 20.3775 56.2503 20.3775H48.8618V18.3736H56.9125C57.9696 18.3736 58.7189 18.6175 59.1604 19.1054C59.6018 19.5817 59.8226 20.2555 59.8226 21.1268V27.3478H50.6044ZM51.0575 25.3438H57.2958V23.8626H51.0575C50.8367 23.8626 50.6625 23.9324 50.5347 24.0718C50.4185 24.1995 50.3604 24.3738 50.3604 24.5945C50.3604 24.8153 50.4185 24.9953 50.5347 25.1347C50.6625 25.2741 50.8367 25.3438 51.0575 25.3438ZM66.0673 27.3478C65.0566 27.3478 64.3132 27.098 63.8369 26.5985C63.3606 26.0873 63.1224 25.4193 63.1224 24.5945V20.3775H60.526V18.3736H63.1224V15.6203H65.6491V18.3736H69.3782V20.3775H65.6491V24.2809C65.6491 24.9895 65.9976 25.3438 66.6947 25.3438H69.8661V27.3478H66.0673ZM70.6424 21.1965V14.8884H85.977V21.1965H83.154V17.1538H79.3552V27.3478H76.5671V17.1538H73.4653V21.1965H70.6424ZM91.9666 27.4349C90.4099 27.4349 89.1959 27.0515 88.3246 26.2848C87.4534 25.5065 87.0177 24.368 87.0177 22.8694C87.0177 21.3592 87.4534 20.2207 88.3246 19.454C89.1959 18.6756 90.4099 18.2864 91.9666 18.2864H95.1904C96.747 18.2864 97.961 18.6756 98.8323 19.454C99.7036 20.2207 100.139 21.3592 100.139 22.8694C100.139 24.368 99.7036 25.5065 98.8323 26.2848C97.961 27.0515 96.747 27.4349 95.1904 27.4349H91.9666ZM91.9666 25.431H95.1904C95.9455 25.431 96.5205 25.2218 96.9155 24.8036C97.3221 24.3854 97.5254 23.7407 97.5254 22.8694C97.5254 21.9865 97.3221 21.3359 96.9155 20.9177C96.5205 20.4995 95.9455 20.2904 95.1904 20.2904H91.9666C91.2115 20.2904 90.6306 20.4995 90.224 20.9177C89.8291 21.3359 89.6316 21.9865 89.6316 22.8694C89.6316 23.7407 89.8291 24.3854 90.224 24.8036C90.6306 25.2218 91.2115 25.431 91.9666 25.431ZM105.964 27.4349C104.407 27.4349 103.193 27.0515 102.322 26.2848C101.45 25.5065 101.015 24.368 101.015 22.8694C101.015 21.3592 101.45 20.2207 102.322 19.454C103.193 18.6756 104.407 18.2864 105.964 18.2864H109.187C110.744 18.2864 111.958 18.6756 112.829 19.454C113.701 20.2207 114.136 21.3592 114.136 22.8694C114.136 24.368 113.701 25.5065 112.829 26.2848C111.958 27.0515 110.744 27.4349 109.187 27.4349H105.964ZM105.964 25.431H109.187C109.942 25.431 110.518 25.2218 110.913 24.8036C111.319 24.3854 111.522 23.7407 111.522 22.8694C111.522 21.9865 111.319 21.3359 110.913 20.9177C110.518 20.4995 109.942 20.2904 109.187 20.2904H105.964C105.209 20.2904 104.628 20.4995 104.221 20.9177C103.826 21.3359 103.629 21.9865 103.629 22.8694C103.629 23.7407 103.826 24.3854 104.221 24.8036C104.628 25.2218 105.209 25.431 105.964 25.431ZM115.36 27.3478V14.8884H117.887V27.3478H115.36ZM119.157 27.4349V25.431H127.696C128.183 25.431 128.427 25.158 128.427 24.612C128.427 24.0776 128.183 23.8104 127.696 23.8104H122.172C121.138 23.8104 120.354 23.578 119.819 23.1133C119.285 22.637 119.018 21.9574 119.018 21.0745C119.018 20.18 119.285 19.4946 119.819 19.0183C120.365 18.5304 121.149 18.2864 122.172 18.2864H130.118V20.2904H122.294C121.794 20.2904 121.544 20.5344 121.544 21.0223C121.544 21.2662 121.614 21.4579 121.753 21.5973C121.893 21.7367 122.073 21.8064 122.294 21.8064H128.149C129.055 21.8064 129.746 22.0446 130.222 22.5209C130.71 22.9856 130.954 23.6652 130.954 24.5597C130.954 25.4658 130.71 26.1745 130.222 26.6856C129.734 27.1851 129.043 27.4349 128.149 27.4349H119.157Z" fill="#000B14"/>
<defs>
<linearGradient id="paint0_linear_1_38" x1="30.6901" y1="8.22338" x2="14.2433" y2="36.71" gradientUnits="userSpaceOnUse">
<stop stop-color="#00D8F3"/>
<stop offset="1" stop-color="#2495FE"/>
</linearGradient>
</defs>
</svg>
